<svg width="256" height="256" viewBox="0 0 256 256" fill="none" xmlns="http://www.w3.org/2000/svg">
<path d="M212.316 129.029C198.419 129.029 187.149 140.288 187.149 154.196C187.149 168.105 198.419 179.363 212.316 179.363C226.214 179.363 237.483 168.094 237.483 154.196C237.483 140.299 226.225 129.029 212.316 129.029ZM222.6 157.482L208.68 165.52C206.151 166.988 202.996 165.159 202.996 162.235V146.158C202.996 143.234 206.151 141.416 208.68 142.872L222.6 150.922C225.13 152.378 225.13 156.025 222.6 157.482Z" fill="white"/>
<path d="M110.609 76.6479V127.124H80.5027L79.5937 128.657L53.3537 172.65C53.2989 172.748 53.2442 172.847 53.1784 172.945L52.8061 173.57C52.7075 173.745 52.598 173.898 52.4885 174.062C50.331 177.129 46.7608 179.144 42.7306 179.144H18.5166V135.798C18.5166 131.001 22.4044 127.124 27.1903 127.124H49.5425L75.9249 82.8794C76.0235 82.6932 76.1221 82.5289 76.2316 82.3647C78.2248 79.1011 81.7403 76.856 85.7923 76.6479C86.0004 76.637 86.1976 76.637 86.4056 76.637C86.6137 76.637 86.8108 76.637 87.0189 76.6479H110.609Z" fill="white"/>
<path d="M202.69 76.6479L145.588 172.387C145.588 172.387 145.566 172.42 145.566 172.431L144.591 174.063C142.434 177.129 138.864 179.133 134.833 179.133H110.609V127.113H141.623L167.962 82.9561C167.962 82.9561 167.984 82.9122 167.995 82.8903C168.039 82.8137 168.072 82.748 168.126 82.6713L168.302 82.3647C168.302 82.3647 168.356 82.288 168.378 82.2442C168.4 82.2004 168.433 82.1566 168.466 82.1237C168.838 81.5323 169.265 80.9848 169.736 80.47C169.901 80.3058 170.065 80.1415 170.229 79.9772C172.222 78.0497 174.894 76.8122 177.862 76.6589C178.07 76.6479 178.268 76.6479 178.476 76.6479H202.69Z" fill="white"/>
</svg>
